<svg width="16" height="16" viewBox="0 0 16 16" fill="none" xmlns="http://www.w3.org/2000/svg">
<g id="vuesax/linear/book">
<g id="book">
<path id="Vector" d="M14.6673 11.16V3.1133C14.6673 2.3133 14.014 1.71996 13.2207 1.78663H13.1807C11.7807 1.90663 9.65398 2.61996 8.46732 3.36663L8.35398 3.43996C8.16065 3.55996 7.84065 3.55996 7.64732 3.43996L7.48065 3.33996C6.29398 2.59996 4.17398 1.8933 2.77398 1.77996C1.98065 1.7133 1.33398 2.3133 1.33398 3.10663V11.16C1.33398 11.8 1.85398 12.4 2.49398 12.48L2.68732 12.5066C4.13398 12.7 6.36732 13.4333 7.64732 14.1333L7.67398 14.1466C7.85398 14.2466 8.14065 14.2466 8.31398 14.1466C9.59398 13.44 11.834 12.7 13.2873 12.5066L13.5073 12.48C14.1473 12.4 14.6673 11.8 14.6673 11.16Z" stroke="#606060" stroke-width="1.5" stroke-linecap="round" stroke-linejoin="round"/>
<path id="Vector_2" d="M8 3.66016V13.6602" stroke="#606060" stroke-width="1.5" stroke-linecap="round" stroke-linejoin="round"/>
<path id="Vector_3" d="M5.16602 5.66016H3.66602" stroke="#606060" stroke-width="1.5" stroke-linecap="round" stroke-linejoin="round"/>
<path id="Vector_4" d="M5.66602 7.66016H3.66602" stroke="#606060" stroke-width="1.5" stroke-linecap="round" stroke-linejoin="round"/>
</g>
</g>
</svg>
