<svg width="64" height="64" viewBox="0 0 64 64" fill="none" xmlns="http://www.w3.org/2000/svg">
<g id="Group 1000000941">
<path id="Vector" opacity="0.3" d="M32 64C49.6731 64 64 49.6731 64 32C64 14.3269 49.6731 0 32 0C14.3269 0 0 14.3269 0 32C0 49.6731 14.3269 64 32 64Z" fill="white"/>
<path id="Vector_2" d="M32.0418 55.0836C44.7674 55.0836 55.0836 44.7674 55.0836 32.0418C55.0836 19.3162 44.7674 9 32.0418 9C19.3162 9 9 19.3162 9 32.0418C9 44.7674 19.3162 55.0836 32.0418 55.0836Z" fill="white"/>
<path id="Stroke 3" fill-rule="evenodd" clip-rule="evenodd" d="M39.8511 33.6637C37.9003 35.767 32.5911 39.326 29.875 40.4687C29.4415 40.6507 28.3363 41.036 28.0982 41.0413C27.5924 41.0574 27.1054 40.7737 26.8699 40.3188C26.7789 40.1422 26.5113 38.9889 26.4257 38.4751C26.1715 36.9123 26.0403 34.4852 26.043 32.0447C26.0403 29.4838 26.1822 26.9416 26.4658 25.3949C26.5407 24.9775 26.7602 24.0168 26.8244 23.8616C26.9448 23.5726 27.1642 23.3451 27.4292 23.2033C27.6325 23.0936 27.8653 23.0347 28.0982 23.0427C28.3363 23.0481 29.305 23.3879 29.6368 23.519C32.254 24.5359 37.7905 28.2234 39.8243 30.391C40.0063 30.5863 40.5067 31.1108 40.5896 31.2178C40.7796 31.4587 40.8733 31.7503 40.8733 32.0447C40.8733 32.3177 40.7903 32.596 40.6191 32.8288C40.5308 32.9492 40.0196 33.4844 39.8511 33.6637Z" fill="#F48B1D"/>
</g>
</svg>
