<svg width="16" height="16" viewBox="0 0 16 16" fill="none" xmlns="http://www.w3.org/2000/svg">
<g id="vuesax/broken/shopping-cart">
<g id="shopping-cart">
<path id="Vector" d="M3.1671 9.31358C3.07376 10.4002 3.93376 11.3336 5.02709 11.3336H12.1271C13.0871 11.3336 13.9271 10.5469 14.0004 9.59359L14.3604 4.59359C14.4404 3.48692 13.6004 2.58691 12.4871 2.58691H3.88043" stroke="#F48B1D" stroke-width="1.5" stroke-miterlimit="10" stroke-linecap="round" stroke-linejoin="round"/>
<path id="Vector_2" d="M1.33301 1.3335H2.49301C3.21301 1.3335 3.77968 1.9535 3.71968 2.66683L3.38634 6.70015" stroke="#F48B1D" stroke-width="1.5" stroke-miterlimit="10" stroke-linecap="round" stroke-linejoin="round"/>
<path id="Vector_3" d="M10.8333 14.6667C11.2936 14.6667 11.6667 14.2936 11.6667 13.8333C11.6667 13.3731 11.2936 13 10.8333 13C10.3731 13 10 13.3731 10 13.8333C10 14.2936 10.3731 14.6667 10.8333 14.6667Z" stroke="#F48B1D" stroke-width="1.5" stroke-miterlimit="10" stroke-linecap="round" stroke-linejoin="round"/>
<path id="Vector_4" d="M5.50033 14.6667C5.96056 14.6667 6.33366 14.2936 6.33366 13.8333C6.33366 13.3731 5.96056 13 5.50033 13C5.04009 13 4.66699 13.3731 4.66699 13.8333C4.66699 14.2936 5.04009 14.6667 5.50033 14.6667Z" stroke="#F48B1D" stroke-width="1.5" stroke-miterlimit="10" stroke-linecap="round" stroke-linejoin="round"/>
<path id="Vector_5" d="M6 5.3335H14" stroke="#F48B1D" stroke-width="1.5" stroke-miterlimit="10" stroke-linecap="round" stroke-linejoin="round"/>
</g>
</g>
</svg>
